<svg viewBox="0 0 52 52" xml:space="preserve" xmlns="http://www.w3.org/2000/svg" enable-background="new 0 0 52 52"><path d="M21.394 45.01h9.833c1.448 0 1.45-2.25 0-2.25h-9.833c-1.448 0-1.45 2.25 0 2.25zM21.478 48.042l10-.108c1.446-.016 1.45-2.266 0-2.25l-10 .108c-1.447.015-1.451 2.265 0 2.25z" fill="#7b64a4" class="fill-231f20"></path><path d="M28.521 47.093c-.31 1.209-.934 1.743-2.242 1.483-.647-.129-1.831-1.019-2.136-1.602-.672-1.283-2.615-.147-1.943 1.136.456.871 1.178 1.29 1.912 1.87.8.633 1.557.828 2.578.881 2.179.114 3.477-1.129 4-3.17.361-1.403-1.808-2.001-2.169-.598zM19.71 22.37c1.19.521 2.052 1.166 2.709 2.305.236.41.334.986.69 1.327.696.668 1.426.714 2.237.238 1.453-.854 2.7-2.898 3.908-4.096a75.308 75.308 0 0 1 5.159-4.638c1.118-.922-.482-2.506-1.591-1.591-2.741 2.259-5.33 4.681-7.717 7.313-.313.341-.62.687-.924 1.036l.473-.086c-.257-.203-.593-1.133-.838-1.463-.782-1.053-1.783-1.767-2.97-2.288-1.314-.575-2.46 1.363-1.136 1.943z" fill="#7b64a4" class="fill-231f20"></path><path d="M30.478 40.343c-2.036 0-4.75.467-6.722 0-.78.791-1.122.806-1.025.044a5.492 5.492 0 0 0-.07-.772c-1.481-2.237-1.62-5.097-3.316-7.357-3.117-4.152-4.543-7.083-4.849-12.541-.253-4.514 2.34-7.837 6.026-10.22 5.057-3.27 10.924-1.747 14.602 2.69 3.223 3.888 6.381 10.078 3.646 15.114-1.514 2.788-4.768 4.498-6.57 7.098-1.52 2.193-2.173 4.6-2.412 7.233-.13 1.442 2.12 1.433 2.25 0 .57-6.296 5.287-8.134 8.39-12.812 1.78-2.685 1.842-6.096 1.135-9.16C39.855 12.25 34.03 5.245 26.11 5.555c-6.03.235-13.27 5.154-13.937 11.586-.36 3.469.39 8.628 1.716 11.811.66 1.584 1.7 2.339 2.817 3.656 2.073 2.442 3.466 5.582 3.87 8.76.062.497.305.946.825 1.085 2.694.719 6.32.14 9.077.14 1.447 0 1.45-2.25 0-2.25zM44.06 22.177h2c1.448 0 1.45-2.25 0-2.25h-2c-1.447 0-1.45 2.25 0 2.25zM39.842 6.25a21.925 21.925 0 0 1-1.901 1.933c-1.08.97.516 2.557 1.591 1.591a21.925 21.925 0 0 0 1.901-1.932c.399-.458.451-1.14 0-1.591-.407-.407-1.19-.46-1.59 0zM5.978 22.6a19.587 19.587 0 0 1 2.502.048c.606.05 1.125-.553 1.125-1.125 0-.65-.517-1.075-1.125-1.125a19.587 19.587 0 0 0-2.502-.047c-.607.027-1.125.497-1.125 1.125 0 .588.515 1.152 1.125 1.125zM11.52 8.008a4 4 0 0 1 1.021 1.43c.244.557 1.058.685 1.54.404.574-.336.648-.98.403-1.54a5.55 5.55 0 0 0-1.373-1.885c-1.073-.967-2.67.62-1.59 1.59z" fill="#7b64a4" class="fill-231f20"></path><path d="M25.019 2.218v2.334c0 1.447 2.25 1.45 2.25 0V2.218c0-1.448-2.25-1.45-2.25 0z" fill="#7b64a4" class="fill-231f20"></path></svg>