<svg viewBox="0 0 48 48" xml:space="preserve" xmlns="http://www.w3.org/2000/svg"><g fill="#7b64a4" class="fill-241f20"><path d="M48 28.984v-9.969h-4.651a19.894 19.894 0 0 0-2.668-6.039l3.118-3.119L38.143 4.2l-3.119 3.12a19.859 19.859 0 0 0-6.004-2.659V0H18.979v4.661a19.91 19.91 0 0 0-6.129 2.735L9.857 4.402l-5.656 5.657 3.042 3.042a19.847 19.847 0 0 0-2.583 5.883H0v10.031h4.66a19.9 19.9 0 0 0 2.66 6.009l-3.118 3.118 5.656 5.656 3.119-3.118A19.891 19.891 0 0 0 19 43.344V48h10v-4.655a19.896 19.896 0 0 0 5.898-2.588L38.143 44l5.656-5.656-3.194-3.194a19.896 19.896 0 0 0 2.744-6.165H48zM24 40c-8.836 0-16-7.164-16-16 0-8.837 7.164-16 16-16 8.837 0 16 7.163 16 16 0 8.836-7.163 16-16 16z"></path><path d="M24 15c-4.971 0-9 4.029-9 9s4.029 9 9 9 9-4.029 9-9-4.029-9-9-9zm0 14a5 5 0 1 1 0-10 5 5 0 1 1 0 10z"></path></g></svg>