<svg viewBox="0 0 64 64" xmlns="http://www.w3.org/2000/svg"><circle cx="32" cy="32" r="15" fill="#f0d400" class="fill-ffd36b"></circle><path d="M32 13a1 1 0 0 1-1-1V3a1 1 0 0 1 2 0v9a1 1 0 0 1-1 1ZM17.857 18.858a.996.996 0 0 1-.707-.293l-4.242-4.243a1 1 0 1 1 1.414-1.414l4.242 4.243a1 1 0 0 1-.707 1.707ZM12 33H3a1 1 0 0 1 0-2h9a1 1 0 0 1 0 2ZM13.615 51.385a1 1 0 0 1-.707-1.707l4.242-4.243a1 1 0 1 1 1.414 1.414l-4.242 4.243a.997.997 0 0 1-.707.293ZM32 62a1 1 0 0 1-1-1v-9a1 1 0 0 1 2 0v9a1 1 0 0 1-1 1ZM50.385 51.385a.997.997 0 0 1-.707-.293l-4.242-4.243a1 1 0 1 1 1.414-1.414l4.242 4.243a1 1 0 0 1-.707 1.707ZM61 33h-9a1 1 0 0 1 0-2h9a1 1 0 0 1 0 2ZM46.143 18.858a1 1 0 0 1-.707-1.707l4.242-4.243a1 1 0 0 1 1.414 1.414l-4.242 4.243a.996.996 0 0 1-.707.293Z" fill="#f7ca18" class="fill-ffe78f"></path></svg>